<svg version="1.2" 
	 x="0px" y="0px" viewBox="0 0 1080 1080" id="raptor">
<g>
	<path fill="#DCE0DF" d="M269.2,395.5c-1.2,2.2-0.5,5.3,1.5,6.9l184.4,143.4c2,1.6,5.7,3,8.2,3.2l27.1,2.5c2.5,0.2,3,1.7,1,3.3
		l-35.1,28.8c-2,1.6-2,4.3-0.1,6l94.6,83.5c1.9,1.7,5,1.6,6.8-0.1l62.9-58.5c1.9-1.7,2-4.7,0.2-6.5L601.2,587c-1.7-1.9-1.9-5-0.3-7
		l18.2-23.1c1.6-2,4.9-3.3,7.4-3l35.8,5c2.5,0.4,5.7-1.1,7.2-3.2l52.8-76.7c1.4-2.1,0.8-4.8-1.4-6l-39.4-21.8
		c-2.2-1.2-3.3-4.2-2.5-6.6l0.5-1.4c0.9-2.4,3.6-4.2,6.1-3.9l74.9,6.3c2.5,0.2,4.7-1.7,4.9-4.2l5.2-68.9c0.2-2.5-1.6-5.2-4-6
		l-162.3-51.8c-2.4-0.8-5,0.6-5.6,3l-19.9,70.3c-0.7,2.4-3.2,5.1-5.6,5.8l-110,34.5c-2.4,0.8-6.3,0.6-8.6-0.5l-160.4-69.6
		c-2.3-1-5.2,0-6.4,2.2L269.2,395.5z"/>
	<path fill="none" stroke="#0550BF" stroke-width="5" stroke-miterlimit="10" d="M269.2,395.5c-1.2,2.2-0.5,5.3,1.5,6.9l184.4,143.4
		c2,1.6,5.7,3,8.2,3.2l27.1,2.5c2.5,0.2,3,1.7,1,3.3l-35.1,28.8c-2,1.6-2,4.3-0.1,6l94.6,83.5c1.9,1.7,5,1.6,6.8-0.1l62.9-58.5
		c1.9-1.7,2-4.7,0.2-6.5L601.2,587c-1.7-1.9-1.9-5-0.3-7l18.2-23.1c1.6-2,4.9-3.3,7.4-3l35.8,5c2.5,0.4,5.7-1.1,7.2-3.2l52.8-76.7
		c1.4-2.1,0.8-4.8-1.4-6l-39.4-21.8c-2.2-1.2-3.3-4.2-2.5-6.6l0.5-1.4c0.9-2.4,3.6-4.2,6.1-3.9l74.9,6.3c2.5,0.2,4.7-1.7,4.9-4.2
		l5.2-68.9c0.2-2.5-1.6-5.2-4-6l-162.3-51.8c-2.4-0.8-5,0.6-5.6,3l-19.9,70.3c-0.7,2.4-3.2,5.1-5.6,5.8l-110,34.5
		c-2.4,0.8-6.3,0.6-8.6-0.5l-160.4-69.6c-2.3-1-5.2,0-6.4,2.2L269.2,395.5z"/>
</g>
<line fill="none" stroke="#0550BF" stroke-width="5" stroke-miterlimit="10" x1="574.1" y1="507.4" x2="632.3" y2="490.1"/>
<polyline fill="none" stroke="#0550BF" stroke-width="5" stroke-miterlimit="10" points="659.3,523.3 688.2,484.6 639.4,457.4 
	654.1,411 735.3,415.1 735.3,383 621.5,350.9 600.4,413.5 464.7,465.5 307,393.2 "/>
<polyline fill="none" stroke="#0550BF" stroke-width="5" stroke-miterlimit="10" points="598.8,470.8 582.4,564.1 528.9,597.9 
	568.7,629.7 "/>
<line fill="none" stroke="#0550BF" stroke-width="5" stroke-miterlimit="10" x1="528.9" y1="583.3" x2="574.4" y2="621.5"/>
<line fill="none" stroke="#0550BF" stroke-width="5" stroke-miterlimit="10" x1="542.7" y1="572.7" x2="585.8" y2="615"/>
<polyline fill="none" stroke="#0550BF" stroke-width="5" stroke-miterlimit="10" points="539.7,488.2 548.4,546.8 495.6,587.4 
	528.9,621.5 "/>
<line fill="none" stroke="#0550BF" stroke-width="5" stroke-miterlimit="10" x1="626.9" y1="527.8" x2="643.3" y2="489.6"/>
<line fill="none" stroke="#0550BF" stroke-width="5" stroke-miterlimit="10" x1="633.1" y1="532" x2="650.4" y2="494.2"/>
<line fill="none" stroke="#0550BF" stroke-width="5" stroke-miterlimit="10" x1="638.7" y1="388.3" x2="749.4" y2="406.2"/>
<path fill="#13E3DB" stroke="#0550BF" stroke-width="5" stroke-miterlimit="10" d="M654.3,388.3c0,6.1,4.9,11,11,11
	c6.1,0,11-4.9,11-11c0-6.1-4.9-11-11-11C659.3,377.3,654.3,382.2,654.3,388.3z"/>
<line fill="none" stroke="#0550BF" stroke-width="5" stroke-miterlimit="10" x1="617.4" y1="479.3" x2="654.3" y2="503.3"/>
<line fill="none" stroke="#0550BF" stroke-width="5" stroke-miterlimit="10" x1="482.9" y1="524.8" x2="528.9" y2="516.7"/>
<path fill="none" stroke="#0550BF" stroke-width="5" stroke-miterlimit="10" d="M464.7,465.5"/>
<line fill="none" stroke="#0550BF" stroke-width="5" stroke-miterlimit="10" x1="482.9" y1="524.8" x2="307" y2="393.2"/>
</svg>
